<?xml version="1.0" encoding="UTF-8" standalone="no"?>
<svg
   xmlns:dc="http://purl.org/dc/elements/1.1/"
   xmlns:cc="http://creativecommons.org/ns#"
   xmlns:rdf="http://www.w3.org/1999/02/22-rdf-syntax-ns#"
   xmlns:svg="http://www.w3.org/2000/svg"
   xmlns="http://www.w3.org/2000/svg"
   xmlns:xlink="http://www.w3.org/1999/xlink"
   xmlns:sodipodi="http://sodipodi.sourceforge.net/DTD/sodipodi-0.dtd"
   xmlns:inkscape="http://www.inkscape.org/namespaces/inkscape"
   height="32"
   width="32"
   version="1.1"
   id="svg41"
   sodipodi:docname="systemsettings.svg"
   inkscape:version="0.92.5 (2060ec1f9f, 2020-04-08)">
  <metadata
     id="metadata45">
    <rdf:RDF>
      <cc:Work
         rdf:about="">
        <dc:format>image/svg+xml</dc:format>
        <dc:type
           rdf:resource="http://purl.org/dc/dcmitype/StillImage" />
        <dc:title></dc:title>
      </cc:Work>
    </rdf:RDF>
  </metadata>
  <sodipodi:namedview
     pagecolor="#ffffff"
     bordercolor="#666666"
     borderopacity="1"
     objecttolerance="10"
     gridtolerance="10"
     guidetolerance="10"
     inkscape:pageopacity="0"
     inkscape:pageshadow="2"
     inkscape:window-width="1076"
     inkscape:window-height="480"
     id="namedview43"
     showgrid="false"
     inkscape:zoom="7.375"
     inkscape:cx="16"
     inkscape:cy="16"
     inkscape:window-x="0"
     inkscape:window-y="25"
     inkscape:window-maximized="0"
     inkscape:current-layer="svg41" />
  <defs
     id="defs3">
    <linearGradient
       xlink:href="#a"
       id="c"
       gradientUnits="userSpaceOnUse"
       y1="-1"
       x2="17"
       y2="18" />
  </defs>
  <linearGradient
     id="a"
     gradientUnits="userSpaceOnUse"
     x2="17"
     y1="-1"
     y2="18"
     gradientTransform="translate(40)">
    <stop
       offset="0"
       stop-color="#fff"
       id="stop5" />
    <stop
       offset="1"
       stop-color="#fff"
       stop-opacity="0"
       id="stop7" />
  </linearGradient>
  <linearGradient
     id="b"
     gradientUnits="userSpaceOnUse"
     x1="9"
     x2="30"
     y1="9"
     y2="30">
    <stop
       offset="0"
       id="stop10" />
    <stop
       offset="1"
       stop-opacity="0"
       id="stop12" />
  </linearGradient>
  <rect
     height="28"
     rx="5"
     width="28"
     x="2"
     y="2"
     ry="5"
     id="rect15"
     style="fill:#2d3033" />
  <path
     d="M 14.545,30 H 25 A 5.005,5.005 0 0 0 28.54,28.54 4.989,4.989 0 0 0 30,25 V 17.172 L 23.414,10.586 22,12 H 6 L 5.271,12.729 11,18.455 V 20 H 6 l -0.729,0.729 z"
     id="path17"
     style="fill:url(#b)"
     inkscape:connector-curvature="0" />
  <g
     transform="translate(-30)"
     id="g25">
    <path
       d="m 36,19 c -1.352,-0.02 -1.352,2.02 0,2 h 6 v -2 z"
       id="path19"
       inkscape:connector-curvature="0"
       style="fill:#3daee9" />
    <circle
       cx="42"
       cy="20"
       r="2"
       id="circle21"
       style="fill:#fafafa" />
    <path
       d="m 42,19 v 2 h 14 c 1.352,0.02 1.352,-2.02 0,-2 z"
       id="path23"
       inkscape:connector-curvature="0"
       style="opacity:0.2;fill:#fcfcfc" />
  </g>
  <g
     transform="translate(-30)"
     id="g33">
    <path
       d="m 36,11 c -1.352,-0.02 -1.352,2.02 0,2 h 16 v -2 z"
       id="path27"
       inkscape:connector-curvature="0"
       style="fill:#3daee9" />
    <circle
       cx="52"
       cy="12"
       r="2"
       id="circle29"
       style="fill:#fafafa" />
    <path
       d="m 52,11 v 2 h 4 c 1.352,0.02 1.352,-2.02 0,-2 z"
       id="path31"
       inkscape:connector-curvature="0"
       style="opacity:0.2;fill:#fcfcfc" />
  </g>
  <path
     d="M 7,2 A 5.005,5.005 0 0 0 3.46,3.46 4.989,4.989 0 0 0 2.393,5.05 C 2.27,5.342 2.267,5.683 2.201,6 H 29.8 C 29.734,5.683 29.731,5.342 29.608,5.05 A 4.989,4.989 0 0 0 26.95,2.393 5.005,5.005 0 0 0 25,2 Z"
     id="path35"
     inkscape:connector-curvature="0"
     style="opacity:0.3;fill:#ffffff;stroke-linecap:round;stroke-linejoin:round;paint-order:stroke fill markers" />
  <path
     d="M 7,30 A 5.005,5.005 0 0 1 3.46,28.54 4.989,4.989 0 0 1 2.393,26.95 C 2.27,26.658 2.267,26.317 2.201,26 H 29.8 c -0.066,0.317 -0.069,0.658 -0.192,0.95 A 4.989,4.989 0 0 1 26.95,29.607 5.005,5.005 0 0 1 25,30 Z"
     id="path37"
     inkscape:connector-curvature="0"
     style="opacity:0.3;stroke-linecap:round;stroke-linejoin:round;paint-order:stroke fill markers" />
  <path
     d="M 7,2 A 5.005,5.005 0 0 0 3.46,3.46 4.989,4.989 0 0 0 2,7 V 25 A 5.005,5.005 0 0 0 3.46,28.54 4.989,4.989 0 0 0 7,30 H 25 A 5.005,5.005 0 0 0 28.54,28.54 4.989,4.989 0 0 0 30,25 V 7 A 5.005,5.005 0 0 0 28.54,3.46 4.989,4.989 0 0 0 25,2 Z"
     id="path39"
     style="opacity:0.27600002;fill:url(#c)"
     inkscape:connector-curvature="0" />
</svg>
